<svg xmlns="http://www.w3.org/2000/svg" viewBox="0 0 48 48" id="hierarchy"><path d="M40.51 29.5h-.74v-2.83a1 1 0 0 0-1-1H25V23.5h3.55c7.89-.27 7.89-11.73 0-12h-9.1a6 6 0 0 0 0 12H23v2.17H9.25a1 1 0 0 0-1 1.16v2.67c-5.11-.55-5.84 6.67-.74 7h5a3.5 3.5 0 0 0 3.43-2.83h2.14a3.5 3.5 0 0 0 3.43 2.83h5a3.5 3.5 0 0 0 3.43-2.83h2.14a3.5 3.5 0 0 0 3.43 2.83h5a3.5 3.5 0 0 0 0-7Zm-21-8c-5.23-.15-5.23-7.85 0-8h9.1a4 4 0 0 1 0 8Zm18.31 6.17v1.83h-2.31a3.52 3.52 0 0 0-3.24 2.17h-2.52a3.52 3.52 0 0 0-3.24-2.17H25v-1.83Zm-27.52 0H23v1.83h-1.5a3.52 3.52 0 0 0-3.24 2.17h-2.51a3.52 3.52 0 0 0-3.24-2.17h-2.26Zm2.26 6.83h-5a1.5 1.5 0 0 1 0-3h5a1.5 1.5 0 0 1-.05 3Zm14 0h-5a1.5 1.5 0 0 1 0-3h5a1.5 1.5 0 0 1-.05 3Zm14 0h-5a1.5 1.5 0 0 1 0-3h5a1.5 1.5 0 0 1-.05 3Z"></path></svg>