<svg xmlns="http://www.w3.org/2000/svg" viewBox="0 0 512 512" id="hook"><g><g><g><path d="M255.46,273.4a31.25,31.25,0,0,1-15.11-4L128.49,207.71a30.9,30.9,0,0,1-16.18-27.4V124.18a31.33,31.33,0,0,1,31.29-31.3H368.4a31.33,31.33,0,0,1,31.29,31.3v56.07a30.88,30.88,0,0,1-16.28,27.46L270.48,269.48A31.21,31.21,0,0,1,255.46,273.4ZM143.6,108.88a15.31,15.31,0,0,0-15.29,15.3v56.13a14.73,14.73,0,0,0,7.9,13.39l111.87,61.72a14.66,14.66,0,0,0,14.73,0l112.93-61.77a14.72,14.72,0,0,0,7.95-13.42V124.18a15.31,15.31,0,0,0-15.29-15.3Z"></path></g><g><path d="M255.48,244.71a7.92,7.92,0,0,1-3.87-1L144.4,184.56a8,8,0,0,1-4.14-7V128.84a8,8,0,0,1,8-8H363.74a8,8,0,0,1,8,8v48.65a8,8,0,0,1-4.16,7L259.31,243.73A8,8,0,0,1,255.48,244.71Zm-99.22-71.87,99.23,54.74,100.25-54.83V136.84H156.26Z"></path></g><g><path d="M233,232.31a8,8,0,0,1-8-8V128.84a8,8,0,0,1,16,0v95.47A8,8,0,0,1,233,232.31Z"></path></g><g><path d="M279,231.84a8,8,0,0,1-8-8v-95a8,8,0,0,1,16,0v95A8,8,0,0,1,279,231.84Z"></path></g><g><path d="M207.59,108.88H165.37a8,8,0,0,1-8-8V64.49a8,8,0,0,1,8-8h42.22a8,8,0,0,1,8,8v36.39A8,8,0,0,1,207.59,108.88Zm-34.22-16h26.22V72.49H173.37Z"></path></g><g><path d="M346.63,108.88H304.41a8,8,0,0,1-8-8V64.49a8,8,0,0,1,8-8h42.22a8,8,0,0,1,8,8v36.39A8,8,0,0,1,346.63,108.88Zm-34.22-16h26.22V72.49H312.41Z"></path></g><g><path d="M186.48,72.49a8,8,0,0,1-8-8V31a8,8,0,0,1,16,0V64.49A8,8,0,0,1,186.48,72.49Z"></path></g><g><path d="M325.52,72.49a8,8,0,0,1-8-8V31a8,8,0,0,1,16,0V64.49A8,8,0,0,1,325.52,72.49Z"></path></g><g><path d="M194,165.66H176.51a8,8,0,0,1,0-16H194a8,8,0,0,1,0,16Z"></path></g><g><path d="M335.49,165.66H318a8,8,0,0,1,0-16h17.47a8,8,0,0,1,0,16Z"></path></g><g><path d="M255.48,489a91.28,91.28,0,0,1-91.28-91.28,8,8,0,0,1,8-8h37.27a8,8,0,0,1,8,8,38,38,0,1,0,38-38H236.84a8,8,0,0,1-8-8V258.35a8,8,0,0,1,11.86-7l7.38,4.07a14.66,14.66,0,0,0,14.73,0l7.46-4.08a8,8,0,0,1,11.84,7v52A91.29,91.29,0,0,1,255.48,489Zm-74.87-83.28a75.27,75.27,0,1,0,91.72-81.38,8,8,0,0,1-6.22-7.8V271.48a30.41,30.41,0,0,1-21.27,0v72.23h10.63a54,54,0,1,1-53.42,62Z"></path></g></g></g></svg>