<svg xmlns="http://www.w3.org/2000/svg" viewBox="0 0 64 64" id="mobile"><rect width="29" height="55" x="17.5" y="4.5" fill="#ced8da" stroke="#5f363a" stroke-linecap="round" stroke-linejoin="round" stroke-width="3" rx="4"></rect><path fill="#fffaf0" stroke="#5f363a" stroke-linecap="round" stroke-linejoin="round" stroke-width="3" d="M21.5 4.5h21a4 4 0 0 1 4 4v5a0 0 0 0 1 0 0h-29a0 0 0 0 1 0 0v-5A4 4 0 0 1 21.5 4.5zM17.5 48.5h29a0 0 0 0 1 0 0v7a4 4 0 0 1-4 4h-21a4 4 0 0 1-4-4v-7A0 0 0 0 1 17.5 48.5z"></path><circle cx="32.25" cy="54" r="2" fill="#5f363a"></circle></svg>