<svg xmlns="http://www.w3.org/2000/svg" viewBox="0 0 64 64" id="obj">
  <g>
    <path fill="#073679" d="M11 3h46v54H11z"></path>
    <path fill="#f7fcff" d="M53 17v44H7V7h36l10 10z"></path>
    <path fill="#4693f2" d="M7 7v18h46v-8L43 7H7z"></path>
    <path fill="#0948a1" d="M53 17h-8a2 2 0 0 1-2-2V7Z"></path>
    <path fill="#4693f2" d="M24.72 53.778 18 49.633V32.222l6.72 4.145v17.411z"></path>
    <path fill="#0948a1" d="m42 36.367-6.72-4.145H18l6.72 4.145H42z"></path>
    <path fill="#2673e5" d="M24.72 36.367H42v17.411H24.72z"></path>
    <g fill="#1e120b">
      <path d="m42.516 35.391-6.711-4.239A.989.989 0 0 0 35.28 31H18.025A1.017 1.017 0 0 0 17 32.019v17.739a1.025 1.025 0 0 0 .475.867l6.73 4.208a.954.954 0 0 0 .515.167H42a1.01 1.01 0 0 0 1-1.019V36.243a1.007 1.007 0 0 0-.484-.852zM23.72 52.156 19 49.19V33.845l4.72 2.967zm-2.193-19.118H35l3.478 2.186H25.005zM41 52.962H25.72v-15.7H41zM15 10a4 4 0 0 0-4 4v4a4 4 0 0 0 8 0v-4a4 4 0 0 0-4-4zm2 8a2 2 0 0 1-4 0v-4a2 2 0 0 1 4 0zm8.5-8H22a1 1 0 0 0-1 1v10a1 1 0 0 0 1 1h3.5a3.495 3.495 0 0 0 2.442-6 3.495 3.495 0 0 0-2.442-6zm0 10H23v-3h2.5a1.5 1.5 0 0 1 0 3zm0-5H23v-3h2.5a1.5 1.5 0 0 1 0 3zM38 10a1 1 0 0 0-1 1v7a2 2 0 0 1-4 0 1 1 0 0 0-2 0 4 4 0 0 0 8 0v-7a1 1 0 0 0-1-1z"></path>
      <circle cx="53" cy="43" r="1"></circle>
      <path d="M57 2H11a1 1 0 0 0-1 1v3H7a1 1 0 0 0-1 1v54a1 1 0 0 0 1 1h46a1 1 0 0 0 1-1v-3h3a1 1 0 0 0 1-1V3a1 1 0 0 0-1-1ZM8 8h34v7a3 3 0 0 0 3 3h7v6H8Zm36 7V9.414L50.586 16H45a1 1 0 0 1-1-1Zm12 41h-2v-9a1 1 0 0 0-2 0v13H8V26h44v13a1 1 0 0 0 2 0V17a1 1 0 0 0-.293-.707l-10-10A1 1 0 0 0 43 6H12V4h44Z"></path>
    </g>
  </g>
</svg>
