<svg xmlns="http://www.w3.org/2000/svg" viewBox="0 0 64 64" id="post-it">
  <path fill="#e6f3ff" d="M25.72691,19.07973l-21.25037,5.694a2,2,0,0,0-1.41422,2.44949l5.694,21.25037a2,2,0,0,0,2.44949,1.41421l13.523-3.62346A2,2,0,0,0,26.143,43.81486l-1.03528-3.8637a2,2,0,0,1,1.41422-2.44949l3.8637-1.03528a2,2,0,0,0,1.41422-2.44948l-3.62347-13.523A2,2,0,0,0,25.72691,19.07973Z"></path>
  <path fill="#4aa5ff" d="M10.07355 30.85884a1 1 0 01-.2583-1.96582l10.625-2.84668a.99989.99989 0 01.51758 1.93164l-10.625 2.84668A.99067.99067 0 0110.07355 30.85884zM11.36749 35.68892a1 1 0 01-.2583-1.96582l10.62549-2.84668a.99989.99989 0 11.51758 1.93164L11.62677 35.65474A.99331.99331 0 0111.36749 35.68892zM12.66193 40.518a1 1 0 01-.2583-1.96582L18.199 36.99947a.99989.99989 0 01.51758 1.93164l-5.79541 1.55273A.99067.99067 0 0112.66193 40.518z"></path>
  <path fill="#21257c" d="M10.68313,50.95738a3.01478,3.01478,0,0,1-2.89256-2.22463L2.0967,27.48179A3.014,3.014,0,0,1,4.21734,23.808l21.25143-5.69436a3.0018,3.0018,0,0,1,3.67334,2.1211l3.62354,13.52344A3.01389,3.01389,0,0,1,30.645,37.432l-3.86422,1.03517a1.00167,1.00167,0,0,0-.707,1.22559L27.10891,43.556a3.01328,3.01328,0,0,1-2.12161,3.67381l-13.52292,3.624A3.01056,3.01056,0,0,1,10.68313,50.95738ZM25.98586,20.04527,4.73538,25.7396a1.00458,1.00458,0,0,0-.707,1.22462l5.69383,21.251a.999.999,0,0,0,1.22412.707l13.52393-3.624a1.00026,1.00026,0,0,0,.707-1.22461l-1.03516-3.86328a3.004,3.004,0,0,1,2.12061-3.67481L30.127,35.50034a1.00445,1.00445,0,0,0,.707-1.22461L27.21047,20.7523A1.00343,1.00343,0,0,0,25.98586,20.04527Z"></path>
  <polygon fill="#4aa5ff" points="55.841 52.129 46.043 57.786 45.397 48.606 52.487 45.33 55.841 52.129"></polygon>
  <path fill="#e6f3ff" d="M59.4562,34.77375l-21.25037-5.694a2,2,0,0,0-2.44949,1.41421l-5.694,21.25037a2,2,0,0,0,1.41421,2.44949l13.523,3.62347A2,2,0,0,0,47.449,56.40305l1.03527-3.8637a2,2,0,0,1,2.44949-1.41421l3.86371,1.03527a2,2,0,0,0,2.44948-1.41421l3.62347-13.523A2,2,0,0,0,59.4562,34.77375Z"></path>
  <path fill="#4aa5ff" d="M51.4009 38.79136a.99324.99324 0 01-.25927-.03418l-10.625-2.84668a.99989.99989 0 11.51757-1.93164l10.625 2.84668a1 1 0 01-.2583 1.96582zM50.107 43.62144a.99067.99067 0 01-.25928-.03418l-10.625-2.84766a.99989.99989 0 11.51758-1.93164l10.625 2.84766a1 1 0 01-.2583 1.96582zM43.98342 47.15659a.99337.99337 0 01-.25928-.03418l-5.79589-1.55273a.99989.99989 0 01.51757-1.93164l5.7959 1.55273a1 1 0 01-.2583 1.96582z"></path>
  <path fill="#21257c" d="M59.71536,33.808,38.46389,28.11362a3.00346,3.00346,0,0,0-3.67334,2.1211L29.0967,51.4857a3.0137,3.0137,0,0,0,2.12113,3.6738l13.5234,3.624a2.99152,2.99152,0,0,0,2.82953-.72432l8.59961-4.96532a2.99121,2.99121,0,0,0,2.04254-2.08868l3.62354-13.52344A3.004,3.004,0,0,0,59.71536,33.808ZM48.8583,55.00614l.59192-2.20794a.99924.99924,0,0,1,1.22461-.707l2.20782.59162ZM59.90481,36.96421,56.28127,50.48765a1.00033,1.00033,0,0,1-1.22509.707l-3.86329-1.03516a2.99793,2.99793,0,0,0-3.67431,2.1211L46.48293,56.1439a1.00616,1.00616,0,0,1-1.22461.708l-13.52246-3.624a.999.999,0,0,1-.70752-1.22461l5.69385-21.251a1.003,1.003,0,0,1,1.22461-.707L59.19729,35.7396A1.00183,1.00183,0,0,1,59.90481,36.96421Z"></path>
  <polygon fill="#e6f3ff" points="31.274 35.918 25.617 45.716 20.468 38.089 24.969 31.706 31.274 35.918"></polygon>
  <polygon fill="#4aa5ff" points="40.994 50.711 32.994 58.711 29.994 50.011 35.994 45.011 40.994 50.711"></polygon>
  <path fill="#e6f3ff" d="M58.78,27.58419c-2.84205,4.45128-14.559-2.3165-12.12428-7.00012C49.49767,16.13292,61.21468,22.9007,58.78,27.58419Z"></path>
  <path fill="#4aa5ff" d="M47.21682,34.6107a.99991.99991,0,0,1-.86523-1.5l3.5-6.0625a1.00016,1.00016,0,1,1,1.73242,1l-3.5,6.0625A1.00115,1.00115,0,0,1,47.21682,34.6107Z"></path>
  <path fill="#e6f3ff" d="M25.44115,19.58419c-2.84205,4.45128-14.559-2.3165-12.12428-7.00012C16.15885,8.13292,27.87586,14.9007,25.44115,19.58419Z"></path>
  <path fill="#4aa5ff" d="M13.878,26.6107a.99991.99991,0,0,1-.86523-1.5l3.5-6.0625a1.00016,1.00016,0,1,1,1.73242,1l-3.5,6.0625A1.00114,1.00114,0,0,1,13.878,26.6107Z"></path>
  <path fill="#21257c" d="M55.60207 30.00523c-3.2687.09475-7.84249-2.51078-9.44917-5.44246-3.36946-6.64868 4.5174-7.78035 9.06479-4.80835a11.15459 11.15459 0 014.06456 3.85139C61.31929 26.89 59.37945 30.11174 55.60207 30.00523zm-5.78613-9.84571c-5.03612.15411-1.26228 5.26086 1.402 6.52232 3.0624 1.7687 5.98671 1.632 6.6957.40249a2.55892 2.55892 0 00-.35889-2.4707A10.14547 10.14547 0 0049.81594 20.15952zM22.26321 22.00523c-3.26844.09481-7.84276-2.51067-9.44869-5.44246-2.01584-3.27643-.14133-6.52989 3.69632-6.40321a12.11144 12.11144 0 019.433 5.4463C27.98028 18.88958 26.04032 22.11177 22.26321 22.00523zm-5.78614-9.84571c-5.03639.15423-1.26207 5.2608 1.402 6.52232 3.0624 1.7687 5.98672 1.632 6.6957.40249C25.64978 15.57987 19.52663 12.06007 16.47707 12.15952z"></path>
  <path fill="#e6f3ff" d="M39.99369,33.01109l-22,0a2,2,0,0,0-2,2v22a2,2,0,0,0,2,2l14,0a2,2,0,0,0,2-2v-4a2,2,0,0,1,2-2h4a2,2,0,0,0,2-2v-14A2,2,0,0,0,39.99369,33.01109Z"></path>
  <path fill="#4aa5ff" d="M32.99368 40.01109h-11a1 1 0 010-2h11a1 1 0 010 2zM32.99368 45.01109h-11a1 1 0 010-2h11a1 1 0 010 2zM27.99368 50.01109h-6a1 1 0 010-2h6a1 1 0 110 2z"></path>
  <path fill="#21257c" d="M39.99368,32.01109h-22a3.00328,3.00328,0,0,0-3,3v22a3.00328,3.00328,0,0,0,3,3h14a2.992,2.992,0,0,0,2.54528-1.431l7.02375-7.02375a2.99187,2.99187,0,0,0,1.431-2.54522v-14A3.00328,3.00328,0,0,0,39.99368,32.01109Zm-22,26a1.001,1.001,0,0,1-1-1v-22a1.001,1.001,0,0,1,1-1h22a1.001,1.001,0,0,1,1,1v14a1.001,1.001,0,0,1-1,1h-4a3.00328,3.00328,0,0,0-3,3v4a1.001,1.001,0,0,1-1,1Zm20.28576-6-3.28576,3.286v-2.286a1.001,1.001,0,0,1,1-1Z"></path>
  <path fill="#e6f3ff" d="M40.44115,29.98481c-2.84205,4.45127-14.559-2.31651-12.12428-7.00012C31.15885,18.53353,42.87586,25.30131,40.44115,29.98481Z"></path>
  <path fill="#4aa5ff" d="M28.878,37.01109a.99991.99991,0,0,1-.86523-1.5l3.5-6.0625a1.00016,1.00016,0,0,1,1.73242,1l-3.5,6.0625A1.00114,1.00114,0,0,1,28.878,37.01109Z"></path>
  <path fill="#21257c" d="M37.28127 32.40952a12.09829 12.09829 0 01-9.46676-5.44633c-2.00288-3.27383-.173-6.48279 3.66214-6.40323a12.10011 12.10011 0 019.46719 5.44629C42.94609 29.27968 41.11611 32.48907 37.28127 32.40952zm-5.8042-9.84961c-5.03625.15433-1.26218 5.26072 1.402 6.52232 2.03106 1.12989 5.2019 2.16128 6.6957.40249C40.64978 25.98026 34.52663 22.46046 31.47707 22.55991zM60.6819 18.29l-2.5 4.33012c-.83 1.43758-3.05017 1.70309-4.9641.59808s-2.79409-3.1605-1.9641-4.59808l2.5-4.33013zM27.34308 10.29l-2.5 4.33012c-.83 1.43758-3.05017 1.70309-4.9641.59808s-2.79409-3.1605-1.9641-4.59808l2.5-4.33013z"></path>
  <path fill="#21257c" d="M55.63918 24.90073c-3.252.11744-7.01831-3.59079-5.25143-6.78036l2.5-4.33a1.00783 1.00783 0 011.36621-.36619l6.92773 4a1.00032 1.00032 0 01.36622 1.36621l-2.5 4.33008A3.8502 3.8502 0 0155.63918 24.90073zm-1.519-9.24414l-2 3.46387c-1.06015 2.47463 3.57441 5.16048 5.19535 3.00013l2-3.464zM22.30032 16.90073c-3.252.11746-7.01835-3.59081-5.25144-6.78036l2.5-4.33a.9987.9987 0 011.36621-.36621l6.92823 4a1.00663 1.00663 0 01.36619 1.36622l-2.5 4.33007A3.85167 3.85167 0 0122.30032 16.90073zm-1.519-9.24414l-2 3.46387c-1.06056 2.47537 3.57562 5.15921 5.19584 3.00013l2-3.464zM42.34308 20.69058l-2.5 4.33013c-.83 1.43757-3.05017 1.70308-4.9641.59807s-2.79409-3.1605-1.9641-4.59808l2.5-4.33012z"></path>
  <path fill="#21257c" d="M37.30032,27.30113c-3.252.11745-7.01835-3.59082-5.25144-6.78037l2.5-4.33a.99785.99785,0,0,1,1.36621-.36621l6.92823,4a1.00663,1.00663,0,0,1,.36619,1.36622l-2.5,4.33007A3.8517,3.8517,0,0,1,37.30032,27.30113Zm-1.519-9.24415-2,3.46387c-1.06051,2.47552,3.57594,5.15946,5.19584,3.00013l2-3.464Z"></path>
  <ellipse cx="57.218" cy="16.29" fill="#4aa5ff" rx="3" ry="4" transform="rotate(-60 57.217 16.29)"></ellipse>
  <ellipse cx="23.879" cy="8.29" fill="#4aa5ff" rx="3" ry="4" transform="rotate(-60 23.879 8.29)"></ellipse>
  <path fill="#21257c" d="M58.13772 20.5687c-5.01023.14683-8.62968-7.24663-2.4282-8.5236 3.53683-.59218 7.70947 3.6464 5.83836 6.74528A3.84845 3.84845 0 0158.13772 20.5687zM56.292 14.01109a1.58274 1.58274 0 00-1.66449 2.30961c.74131 1.71967 3.73661 3.26978 5.18792 1.46968C60.75156 16.26343 58.13235 13.8551 56.292 14.01109zm4.38964 4.27929h0zM24.78469 12.56089c-4.99462.15454-8.614-7.24071-2.414-8.51579 3.53634-.59382 7.709 3.64611 5.83885 6.74528A3.8278 3.8278 0 0124.78469 12.56089zm-1.83154-6.5498A1.58272 1.58272 0 0021.28866 8.3207c.63047 1.84276 4.22077 3.1531 5.18841 1.46968C27.41245 8.26343 24.79355 5.8551 22.95315 6.01109zm4.39014 4.27929h0z"></path>
  <ellipse cx="38.879" cy="18.691" fill="#4aa5ff" rx="3" ry="4" transform="rotate(-60 38.879 18.69)"></ellipse>
  <path fill="#21257c" d="M39.78469,22.96128c-4.99462.15454-8.614-7.24071-2.414-8.51579,3.53621-.59283,7.70915,3.6454,5.83885,6.74528A3.8278,3.8278,0,0,1,39.78469,22.96128Zm-1.83154-6.5498a1.58272,1.58272,0,0,0-1.66449,2.30961c.63057,1.84309,4.21948,3.15132,5.18841,1.46968C42.41245,18.66382,39.79355,16.25549,37.95315,16.41148Zm4.39014,4.27929h0Z"></path>
</svg>
