<svg xmlns="http://www.w3.org/2000/svg" width="64" height="64" id="software-dvd">
  <path fill="#08102d" d="M41.6 9.191V2.676H0v58.649h41.6v-6.517C53.972 54.809 64 44.598 64 32 64 19.404 53.972 9.191 41.6 9.191zm0 26.068v-6.517c1.765 0 3.2 1.461 3.2 3.258s-1.436 3.259-3.2 3.259z"></path>
  <path fill="#fc0" d="M3.201 5.934h35.2v52.133h-35.2z"></path>
  <path fill="#e6ffff" d="m55.608 18.646-9.338 8.902a6.325 6.325 0 0 0-.674-.636l7.991-10.172a19.366 19.366 0 0 1 2.021 1.906zM41.6 12.45c2.121 0 4.162.353 6.072 1.003l-4.049 12.364a6.282 6.282 0 0 0-2.023-.333V12.45zm0 39.101V38.518c3.535 0 6.4-2.919 6.4-6.518a6.557 6.557 0 0 0-1.107-3.662l10.585-7.318A19.688 19.688 0 0 1 60.8 32c0 10.781-8.612 19.551-19.2 19.551z"></path>
  <path fill="#08102d" d="m16 41.775 6.4-19.549h3.2l-6.4 19.549zM13.931 39.669 6.4 32l7.531-7.668 2.262 2.304L10.925 32l5.268 5.365zM25.407 26.636l2.261-2.304L35.2 32l-7.532 7.669-2.261-2.304L30.675 32z"></path>
</svg>
