<svg xmlns="http://www.w3.org/2000/svg" viewBox="0 0 64 64" id="task-management">
  <path fill="#4e5292" d="M57.78 0H6.22c-.53 0-.97.44-.97.97v62.06c0 .53.44.97.97.97h51.56c.53 0 .97-.44.97-.97V.97c0-.53-.44-.97-.97-.97zm-.97 62.06H7.19V1.94h49.62v60.12z"></path>
  <path fill="#d8dfe6" d="M7.19 1.94v60.12h49.62V1.94H7.19zm45.32 8.31v1.85c0 .53-.44.97-.97.97h-5.73v2.67h3.3c.53 0 .97.43.97.97v5.14c0 .53-.44.97-.97.97h-3.3v2.62c0 .54-.44.97-.97.97H32.8v2.95h4.8c.53 0 .97.43.97.97v5.88c0 .54-.44.97-.97.97h-4.8v2.94h.51c.53 0 .97.44.97.97v1.06c.53.15 1.05.37 1.54.64l.75-.75c.36-.37 1.01-.36 1.37 0l2.09 2.09c.38.38.38.99 0 1.37l-.75.75c.27.48.48 1.01.65 1.54h1.05c.26 0 .5.11.69.28.18.18.28.44.28.69v2.96c0 .53-.44.97-.97.97h-1.05c-.16.54-.38 1.06-.64 1.55l.75.74c.17.18.28.44.28.69 0 .26-.11.5-.28.69l-2.09 2.08c-.38.39-.99.39-1.37.01l-.75-.75c-.49.26-1.01.48-1.55.64v1.06a.97.97 0 0 1-.97.97h-2.96c-.53 0-.97-.44-.97-.97v-1.06a7.95 7.95 0 0 1-1.54-.64l-.75.75a.976.976 0 0 1-1.37 0l-2.09-2.09a.966.966 0 0 1 0-1.37l.75-.75a7.95 7.95 0 0 1-.64-1.54h-1.06c-.26 0-.5-.11-.69-.28a.993.993 0 0 1-.28-.69v-2.96c0-.53.44-.97.97-.97h1.06c.16-.53.37-1.06.63-1.55l-.75-.74a1.04 1.04 0 0 1-.28-.69c0-.26.11-.5.28-.69l2.09-2.08a.96.96 0 0 1 1.38 0l.74.74c.49-.26 1.01-.48 1.55-.64v-1.06a.97.97 0 0 1 .97-.97h.5v-2.94h-4.8a.97.97 0 0 1-.97-.97v-5.88c0-.54.44-.97.97-.97h4.8V26.4H18.83a.97.97 0 0 1-.97-.97v-2.62h-3.3c-.53 0-.97-.44-.97-.97V16.7c0-.54.44-.97.97-.97h3.3v-2.67h-5.39a.97.97 0 0 1-.97-.97v-1.85a2.797 2.797 0 0 1-1.85-2.63c0-1.55 1.27-2.81 2.82-2.81 1.55 0 2.81 1.26 2.81 2.81 0 1.21-.78 2.24-1.84 2.63v.88h11.12v-.88a2.788 2.788 0 0 1-1.84-2.63c0-1.55 1.26-2.81 2.81-2.81s2.81 1.26 2.81 2.81c0 1.21-.78 2.24-1.84 2.63v1.85c0 .53-.44.97-.97.97H19.8v2.67h3.3c.53 0 .97.43.97.97v5.14c0 .53-.44.97-.97.97h-3.3v1.65h24.08v-1.65h-3.3c-.53 0-.97-.44-.97-.97V16.7c0-.54.44-.97.97-.97h3.3v-2.67h-5.39a.97.97 0 0 1-.97-.97v-1.85a2.797 2.797 0 0 1-1.85-2.63c0-1.55 1.27-2.81 2.82-2.81 1.55 0 2.81 1.26 2.81 2.81 0 1.21-.78 2.24-1.84 2.63v.88H50.58v-.87a2.811 2.811 0 1 1 3.78-2.64c0 1.22-.78 2.25-1.85 2.64z"></path>
  <path fill="#ccd5dd" d="M29.44 59.71H13c-1.91 0-3.46-1.55-3.46-3.46V1.94h4.87v3.65c-.5-.48-1.18-.78-1.94-.78-.15 0-.29.01-.44.04-1.35.2-2.39 1.37-2.39 2.77 0 1.21.78 2.24 1.85 2.63v1.85c0 .53.43.97.97.97h1.94v2.69a.95.95 0 0 0-.81.95v5.14c0 .48.35.88.81.95v28.59c0 1.91 1.55 3.46 3.46 3.46h5.9l-.13.13c-.38.38-.38.99 0 1.37l2.09 2.09c.17.18.43.28.68.28.26 0 .5-.1.69-.28l.75-.75c.49.27 1.01.48 1.54.64v1.06c.01.11.03.22.06.32zm27.37-4.86v4.87H34.23a.92.92 0 0 0 .06-.33v-1.06c.3-.09.59-.19.87-.32.23-.1.46-.2.68-.32l.75.75c.38.38.99.38 1.37-.01l2.09-2.08c.04-.05.09-.1.12-.15l.01-.01c.1-.16.16-.34.16-.53 0-.25-.11-.5-.28-.69l-.12-.12h16.87z"></path>
  <path fill="#b5c3cc" d="M56.81 59.71v2.35H7.19V1.94h2.35v54.31c0 1.91 1.55 3.46 3.46 3.46h16.45c.14.37.49.64.91.64h2.96c.26 0 .5-.11.69-.29.11-.1.17-.21.22-.35h22.58z"></path>
  <path fill="#4e5292" d="M34.99 47.08c-1.74-1.74-4.57-1.74-6.3 0-.84.84-1.31 1.96-1.31 3.15s.47 2.31 1.31 3.15a4.43 4.43 0 0 0 3.15 1.31c1.13 0 2.28-.44 3.15-1.31.84-.84 1.3-1.96 1.3-3.15s-.45-2.31-1.3-3.15zm-1.38 4.93a2.5 2.5 0 0 1-1.77.74c-.65 0-1.3-.24-1.78-.74a2.514 2.514 0 0 1 0-3.56c.49-.48 1.13-.73 1.78-.73.64 0 1.29.24 1.77.73a2.514 2.514 0 0 1 0 3.56z"></path>
  <path fill="#4e5292" d="M51.54 4.81c-1.55 0-2.81 1.26-2.81 2.81 0 1.21.77 2.24 1.84 2.64v.87H39.45v-.88a2.802 2.802 0 0 0 1.84-2.63c0-1.55-1.26-2.81-2.81-2.81s-2.82 1.26-2.82 2.81c0 1.21.78 2.24 1.85 2.63v1.85c0 .53.43.97.97.97h5.39v2.67h-3.3a.97.97 0 0 0-.97.97v5.14c0 .53.44.97.97.97h3.3v1.65H19.8v-1.65h3.3c.53 0 .97-.44.97-.97v-5.14a.97.97 0 0 0-.97-.97h-3.3v-2.67h5.73c.53 0 .97-.44.97-.97v-1.85a2.802 2.802 0 0 0 1.84-2.63c0-1.55-1.26-2.81-2.81-2.81s-2.81 1.26-2.81 2.81c0 1.21.77 2.24 1.84 2.63v.88H13.44v-.88a2.802 2.802 0 0 0 1.84-2.63c0-1.55-1.26-2.81-2.81-2.81S9.65 6.07 9.65 7.62c0 1.21.78 2.24 1.85 2.63v1.85c0 .53.43.97.97.97h5.39v2.67h-3.3a.97.97 0 0 0-.97.97v5.14c0 .53.44.97.97.97h3.3v2.62c0 .54.44.97.97.97h12.03v2.95h-4.8a.97.97 0 0 0-.97.97v5.88c0 .54.44.97.97.97h4.8v2.94h-.5c-.26 0-.5.11-.69.29-.18.17-.28.43-.28.68v1.06c-.54.16-1.06.38-1.55.64l-.74-.74a.96.96 0 0 0-1.38 0l-2.09 2.08c-.17.18-.28.43-.28.69 0 .25.11.5.28.69l.75.74a8 8 0 0 0-.63 1.55h-1.06c-.53 0-.97.44-.97.97v2.96c0 .25.1.5.28.69.18.17.43.28.69.28h1.06c.16.53.37 1.05.64 1.54l-.75.75c-.38.38-.38.99 0 1.37l2.09 2.09c.17.18.43.28.68.28.26 0 .5-.1.69-.28l.75-.75c.49.27 1.01.48 1.54.64v1.06c0 .53.44.97.97.97h2.96c.26 0 .5-.11.69-.29.18-.17.28-.43.28-.68v-1.06c.54-.16 1.06-.38 1.55-.64l.75.75c.38.38.99.38 1.37-.01l2.09-2.08c.17-.18.28-.43.28-.69 0-.25-.11-.5-.28-.69l-.75-.74c.26-.49.48-1.01.64-1.55h1.05c.53 0 .97-.44.97-.97v-2.96c0-.25-.1-.5-.28-.69a1.02 1.02 0 0 0-.69-.28h-1.05c-.16-.53-.38-1.06-.65-1.54l.75-.75c.38-.38.38-.99 0-1.37l-2.09-2.09c-.36-.36-1.01-.37-1.37 0l-.75.75a7.95 7.95 0 0 0-1.54-.64v-1.06c0-.53-.44-.97-.97-.97h-.52v-2.94h4.8c.53 0 .97-.43.97-.97v-5.88a.97.97 0 0 0-.97-.97h-4.8V26.4h12.04c.53 0 .97-.43.97-.97v-2.62h3.3c.53 0 .97-.44.97-.97V16.7a.97.97 0 0 0-.97-.97h-3.3v-2.67h5.73c.53 0 .97-.44.97-.97v-1.85a2.802 2.802 0 0 0 1.84-2.63c.01-1.54-1.25-2.8-2.81-2.8zM38.48 8.49a.88.88 0 0 1-.88-.87c0-.48.4-.87.88-.87s.87.39.87.87c.01.49-.39.87-.87.87zM25.53 6.75c.48 0 .87.39.87.87s-.4.87-.87.87a.87.87 0 0 1-.87-.87c-.01-.48.38-.87.87-.87zM12.47 8.49a.88.88 0 0 1-.88-.87c0-.48.4-.87.88-.87a.87.87 0 0 1 0 1.74zm3.06 12.39v-3.2h6.59v3.2h-6.59zm17.59 22.96c.83.16 1.62.48 2.32.96.39.25.9.2 1.23-.13l.59-.59.72.72-.59.59c-.33.33-.38.84-.13 1.23.48.7.8 1.48.97 2.32.09.46.48.78.95.78h.83v1.02h-.83c-.47 0-.86.33-.95.79-.16.83-.49 1.61-.96 2.32-.26.39-.2.9.12 1.22l.59.59-.72.72-.59-.59a.98.98 0 0 0-1.22-.12c-.71.47-1.48.8-2.32.96a.98.98 0 0 0-.79.95v.84h-1.02v-.84c0-.46-.32-.86-.78-.95-.83-.16-1.62-.48-2.32-.96-.39-.25-.9-.2-1.23.13l-.59.59-.72-.72.59-.59c.33-.33.38-.84.13-1.23-.48-.7-.8-1.48-.96-2.32a.972.972 0 0 0-.95-.78h-.84v-1.02h.84c.46 0 .85-.33.95-.79.16-.83.48-1.61.95-2.32.26-.38.21-.89-.12-1.22l-.59-.59.72-.72.6.59c.33.32.84.38 1.22.12.71-.47 1.48-.8 2.32-.96.46-.09.79-.48.79-.95v-.84h1.02v.84c-.01.47.31.86.77.95zm3.51-12.55v3.94h-9.6v-3.94h9.6zm11.51-13.61v3.2h-6.59v-3.2h6.59zm3.4-9.19a.87.87 0 1 1 .87-.87c.01.49-.38.87-.87.87z"></path>
  <path fill="#cfb7a5" d="M13.34 7.62c0 .48-.4.87-.87.87a.88.88 0 0 1-.88-.87c0-.48.4-.87.88-.87.47 0 .87.39.87.87zm13.06 0c0 .48-.4.87-.87.87a.87.87 0 0 1 0-1.74c.47 0 .87.39.87.87zm12.96 0c0 .48-.4.87-.87.87a.88.88 0 0 1-.88-.87c0-.48.4-.87.88-.87.47 0 .87.39.87.87zm13.06 0a.87.87 0 1 1-1.741-.001.87.87 0 0 1 1.741.001z"></path>
  <path fill="#ffdb7c" d="M15.53 17.68h6.59v3.2h-6.59z"></path>
  <path fill="#e1ba62" d="M22.12 20.25v.63h-6.59v-3.2h.63v1.9c0 .37.3.67.67.67h5.29z"></path>
  <path fill="#f0ca6c" d="M22.12 19.49v.76h-5.29a.67.67 0 0 1-.67-.67v-1.9h.76v1.14c0 .37.3.67.67.67h4.53z"></path>
  <path fill="#ffdb7c" d="M41.55 17.68h6.59v3.2h-6.59z"></path>
  <path fill="#bfdda0" d="M27.03 31.29h9.6v3.94h-9.6z"></path>
  <path fill="#94c36b" d="M36.63 34.52v.71h-9.6v-3.94h.71v2.48c0 .41.34.75.75.75h8.14z"></path>
  <path fill="#a5d179" d="M36.63 33.39v1.13h-8.15c-.41 0-.75-.34-.75-.75v-2.48h1.13v1.34c0 .42.34.76.76.76h7.01z"></path>
  <path fill="#f1b8c7" d="M39.18 49.72c-.47 0-.86-.32-.95-.78-.17-.83-.49-1.62-.97-2.32-.25-.39-.2-.9.13-1.23l.59-.59-.72-.72-.59.59c-.33.33-.84.38-1.23.13-.7-.48-1.48-.8-2.32-.96a.956.956 0 0 1-.78-.95v-.84h-1.02v.84c0 .47-.33.86-.79.95-.83.16-1.61.49-2.32.96a.97.97 0 0 1-1.22-.12l-.59-.59-.72.72.59.59c.33.33.38.84.12 1.22-.47.71-.79 1.48-.95 2.32a.98.98 0 0 1-.95.79h-.84v1.02h.84c.46 0 .85.32.95.78.16.83.48 1.62.96 2.32.25.39.2.9-.13 1.23l-.59.59.72.72.6-.6c.33-.33.84-.38 1.23-.13.7.48 1.48.8 2.32.96.46.09.78.49.78.95v.84h1.02v-.84c0-.46.33-.85.79-.95.83-.16 1.61-.49 2.32-.96.39-.25.9-.2 1.22.12l.59.59.72-.72-.59-.59a.967.967 0 0 1-.12-1.22c.47-.71.8-1.48.96-2.32.09-.46.48-.79.95-.79h.83v-1.02h-.84zm-10.49 3.66a4.434 4.434 0 0 1-1.31-3.15c0-1.19.47-2.31 1.31-3.15 1.74-1.74 4.57-1.74 6.3 0 .84.84 1.3 1.96 1.3 3.15s-.46 2.31-1.3 3.15c-.87.87-2.02 1.31-3.15 1.31a4.43 4.43 0 0 1-3.15-1.31z"></path>
  <path fill="#d8dfe6" d="M34.35 50.23c0 .67-.26 1.31-.74 1.78a2.5 2.5 0 0 1-1.77.74c-.65 0-1.3-.24-1.78-.74a2.514 2.514 0 0 1 0-3.56c.49-.48 1.13-.73 1.78-.73.64 0 1.29.24 1.77.73.48.48.74 1.11.74 1.78z"></path>
  <path fill="#ec9aad" d="M35.75 46.3a5.502 5.502 0 0 0-3.9-1.6c-1.44 0-2.84.53-3.93 1.6-1.05 1.07-1.62 2.45-1.62 3.92 0 1.47.57 2.88 1.62 3.93 1.07 1.09 2.49 1.62 3.93 1.62 1.41 0 2.81-.53 3.9-1.62a5.521 5.521 0 0 0 1.62-3.93c0-1.46-.57-2.85-1.62-3.92zm-.76 7.08c-.87.87-2.02 1.31-3.15 1.31a4.43 4.43 0 0 1-3.15-1.31 4.434 4.434 0 0 1-1.31-3.15c0-1.19.47-2.31 1.31-3.15 1.74-1.74 4.57-1.74 6.3 0 .84.84 1.3 1.96 1.3 3.15s-.45 2.31-1.3 3.15z"></path>
  <path fill="#e1ba62" d="M48.14 20.25v.63h-6.59v-3.2h.63v1.9c0 .37.3.67.67.67h5.29z"></path>
  <path fill="#f0ca6c" d="M48.14 19.49v.76h-5.29a.67.67 0 0 1-.67-.67v-1.9h.76v1.14c0 .37.3.67.67.67h4.53z"></path>
</svg>
