<svg xmlns="http://www.w3.org/2000/svg" enable-background="new 0 0 64 64" viewBox="0 0 64 64" id="water-well-drilling">
  <path fill="#00aeef" d="M40.27 20.86l-.63.29C30.79 25.17 27.67 30.8 26.6 33.8l-.21.59.55-.29c7.86-4.13 11.53-9.68 13.02-12.62L40.27 20.86zM39.96 10.07l.31-.61-.63.28c-4.53 2.05-8.07 4.73-10.54 8.02-.04.07-.09.15-.19.24-1.31 1.81-2 3.4-2.34 4.41l-.2.58.54-.28C34.8 18.56 38.47 13.01 39.96 10.07zM39.97 32.87l.31-.61-.62.28c-4.58 2.07-8.14 4.79-10.63 8.14l.2.13c0 0 0 0 0 0l-.29-.02c-1.03 1.42-1.83 2.91-2.36 4.43l-.2.58.54-.29C34.84 41.35 38.5 35.81 39.97 32.87zM37.59 8.65l.13-.07V5.97h-8.46v8.71l.41-.42C31.81 12.1 34.48 10.21 37.59 8.65zM37.72 20v-3.31l-.42.46c-2.19 2.38-4.85 4.5-7.92 6.3l-.12.07v2.57l.41-.42c2.12-2.14 4.78-4.03 7.91-5.59L37.72 20zM29.38 34.84l-.12.07v2.57l.41-.42c2.12-2.15 4.78-4.03 7.91-5.59l.13-.07v-3.31l-.42.46C35.12 30.93 32.46 33.05 29.38 34.84zM29.38 46.26l-.12.07v2.57l4.24 4.54 4.22-4.55v-9.41l-.42.46C35.13 42.33 32.46 44.45 29.38 46.26z"></path>
  <rect width="23.47" height="5.22" y="7.98" fill="#34495c"></rect>
  <path fill="#34495c" d="M23.47,15.26H0v26.72h23.47V15.26z M3.23,23.31v-3.02c0-0.57,0.46-1.03,1.03-1.03c0.57,0,1.03,0.46,1.03,1.03
		v3.02c0,0.57-0.46,1.03-1.03,1.03C3.68,24.34,3.23,23.88,3.23,23.31z M6.72,34.76c0,0.57-0.47,1.03-1.03,1.03
		c-0.57,0-1.03-0.46-1.03-1.03v-3.02c0-0.57,0.46-1.03,1.03-1.03c0.56,0,1.03,0.46,1.03,1.03V34.76z M12.66,38.53
		c0,0.56-0.47,1.03-1.03,1.03c-0.57,0-1.03-0.47-1.03-1.03v-3.03c0-0.56,0.46-1.03,1.03-1.03c0.56,0,1.03,0.47,1.03,1.03V38.53z
		 M12.66,27.87c0,0.57-0.47,1.03-1.03,1.03c-0.57,0-1.03-0.46-1.03-1.03v-3.02c0-0.56,0.46-1.03,1.03-1.03
		c0.56,0,1.03,0.47,1.03,1.03V27.87z M19.07,33.95c0,0.57-0.46,1.03-1.03,1.03c-0.56,0-1.03-0.46-1.03-1.03v-3.02
		c0-0.57,0.47-1.03,1.03-1.03c0.57,0,1.03,0.46,1.03,1.03V33.95z M19.07,22.89c0,0.57-0.46,1.03-1.03,1.03
		c-0.56,0-1.03-0.46-1.03-1.03v-3.02c0-0.57,0.47-1.03,1.03-1.03c0.57,0,1.03,0.46,1.03,1.03V22.89z"></path>
  <rect width="20.32" height="5.22" x="43.68" y="7.98" fill="#34495c"></rect>
  <path fill="#34495c" d="M43.68 41.98H64V15.26H43.68V41.98zM60.05 19.32c0-.56.46-1.03 1.03-1.03.56 0 1.03.47 1.03 1.03v2.95c0 .57-.47 1.03-1.03 1.03-.57 0-1.03-.46-1.03-1.03V19.32zM60.05 30.1c0-.57.46-1.03 1.03-1.03.56 0 1.03.46 1.03 1.03v2.95c0 .56-.47 1.03-1.03 1.03-.57 0-1.03-.47-1.03-1.03V30.1zM53.8 24.18c0-.56.46-1.03 1.03-1.03.57 0 1.03.47 1.03 1.03v2.95c0 .57-.46 1.03-1.03 1.03-.57 0-1.03-.46-1.03-1.03V24.18zM53.8 34.55c0-.57.46-1.03 1.03-1.03.57 0 1.03.46 1.03 1.03v2.95c0 .56-.46 1.03-1.03 1.03-.57 0-1.03-.47-1.03-1.03V34.55zM50.09 30.89v2.95c0 .56-.47 1.03-1.03 1.03-.57 0-1.03-.47-1.03-1.03v-2.95c0-.57.46-1.03 1.03-1.03C49.62 29.85 50.09 30.31 50.09 30.89zM46.64 19.73c0-.56.46-1.03 1.03-1.03.56 0 1.02.47 1.02 1.03v2.95c0 .57-.46 1.03-1.02 1.03-.57 0-1.03-.46-1.03-1.03V19.73zM43.68 50.96c0 2.35-1.91 4.26-4.26 4.26H27.73c-2.34 0-4.26-1.91-4.26-4.26v-6.93H0v14h64v-14H43.68V50.96zM2.38 47.32c0-.56.47-1.03 1.03-1.03h3.33c.56 0 1.03.47 1.03 1.03 0 .57-.47 1.03-1.03 1.03H3.42C2.85 48.35 2.38 47.9 2.38 47.32zM9.42 55.37H6.1c-.57 0-1.03-.47-1.03-1.03 0-.57.46-1.03 1.03-1.03h3.32c.56 0 1.03.46 1.03 1.03C10.45 54.9 9.99 55.37 9.42 55.37zM16.66 50.68h-3.33c-.56 0-1.03-.47-1.03-1.03 0-.57.47-1.03 1.03-1.03h3.33c.56 0 1.03.46 1.03 1.03C17.69 50.21 17.22 50.68 16.66 50.68zM56.69 45.52h3.33c.56 0 1.03.47 1.03 1.03 0 .57-.47 1.03-1.03 1.03h-3.33c-.56 0-1.03-.46-1.03-1.03C55.65 45.99 56.12 45.52 56.69 45.52zM56.3 53.62h3.32c.56 0 1.03.47 1.03 1.03 0 .57-.47 1.03-1.03 1.03H56.3c-.57 0-1.03-.46-1.03-1.03C55.27 54.09 55.73 53.62 56.3 53.62zM48.48 49.69h3.32c.57 0 1.03.46 1.03 1.03 0 .57-.46 1.03-1.03 1.03h-3.32c-.57 0-1.03-.46-1.03-1.03C47.45 50.14 47.9 49.69 48.48 49.69z"></path>
</svg>
