<svg xmlns="http://www.w3.org/2000/svg" viewBox="0 0 468.848 468.848" id="web-optimization">
  <path fill="#ff8ede" d="M3.047 3h348.712v312.613H3.047z"></path>
  <path fill="#fd4cc8" d="M109.532 274.926c-53.078 3.423-80.656-34.673-62.457-82.997C69.929 120.151 61.037 48.225 50.62 3H3.047v312.613h314.302c-41.526-48.702-179.285-42.527-207.817-40.687z"></path>
  <g fill="#fff" opacity=".3">
    <path d="M78.715 300.069v-28.666h30.338v28.666zM139.391 300.069v-28.666h30.338v28.666zM200.067 300.069v-28.666h30.338v28.666zM260.743 300.069v-28.666h30.338v28.666zM321.419 300.069v-28.666h30.338v28.666zM78.715 242.686V214.02h30.338v28.666zM139.391 242.686V214.02h30.338v28.666zM200.067 242.686V214.02h30.338v28.666zM260.743 242.686V214.02h30.338v28.666zM321.419 242.686V214.02h30.338v28.666zM78.715 185.303v-28.666h30.338v28.666zM139.391 185.303v-28.666h30.338v28.666zM200.067 185.303v-28.666h30.338v28.666zM260.743 185.303v-28.666h30.338v28.666zM321.419 185.303v-28.666h30.338v28.666zM78.715 127.945V99.279h30.338v28.666zM139.391 127.945V99.279h30.338v28.666zM200.067 127.945V99.279h30.338v28.666zM260.743 127.945V99.279h30.338v28.666zM321.419 127.945V99.279h30.338v28.666zM48.371 315.612v-15.518h30.338v15.518zM109.048 315.613v-15.518h30.338v15.518zM169.724 315.613v-15.518h30.338v15.518zM230.4 315.613v-15.518h30.338v15.518zM291.076 315.613v-15.518h30.338v15.518zM48.371 271.377v-28.666h30.338v28.666zM109.048 271.378v-28.666h30.338v28.666zM169.724 271.378v-28.666h30.338v28.666zM230.4 271.378v-28.666h30.338v28.666zM291.076 271.378v-28.666h30.338v28.666zM48.371 213.993v-28.666h30.338v28.666zM109.048 213.994v-28.666h30.338v28.666zM169.724 213.994v-28.666h30.338v28.666zM230.4 213.994v-28.666h30.338v28.666zM291.076 213.994v-28.666h30.338v28.666zM48.371 156.61v-28.666h30.338v28.666zM109.048 156.611v-28.666h30.338v28.666zM169.724 156.611v-28.666h30.338v28.666zM230.4 156.611v-28.666h30.338v28.666zM291.076 156.611v-28.666h30.338v28.666zM48.377 99.279v-17.33h30.338v17.33zM109.053 99.279v-17.33h30.338v17.33zM169.729 99.279v-17.33h30.338v17.33zM230.405 99.279v-17.33h30.338v17.33zM291.081 99.279v-17.33h30.338v17.33zM18.034 300.069v-28.666h30.338v28.666zM18.034 242.686V214.02h30.338v28.666zM18.034 185.303v-28.666h30.338v28.666z"></path>
    <path d="M18.034 127.945V99.279h30.338v28.666zM3.047 315.614v-15.518h14.982v15.518zM3.047 271.379v-28.666h14.982v28.666zM3.048 213.995v-28.666H18.03v28.666zM3.047 156.612v-28.666h14.982v28.666zM3.047 99.279v-17.33h14.987v17.33z"></path>
  </g>
  <path fill="#fc09b2" d="M3.047 3h348.712v78.949H3.047z"></path>
  <path fill="#bd0a95" d="M50.62 3H3.047v78.948h58.119C60.099 51.575 55.531 24.32 50.62 3z"></path>
  <path fill="#fff" d="M279.047 23.12h45.422v37.84h-45.422z"></path>
  <path d="M324.469 63.96h-45.422a3 3 0 0 1-3-3V23.12a3 3 0 0 1 3-3h45.422a3 3 0 0 1 3 3v37.84a3 3 0 0 1-3 3zm-42.422-6h39.422V26.12h-39.422v31.84z"></path>
  <path d="m306.003 42.04 3.917-3.91a2.998 2.998 0 0 0 .004-4.242 2.998 2.998 0 0 0-4.242-.004l-3.924 3.917-3.924-3.917a2.998 2.998 0 0 0-4.242.004 2.998 2.998 0 0 0 .004 4.242l3.917 3.91-3.917 3.91a2.998 2.998 0 0 0-.004 4.242c1.414 1.173 2.828 1.174 4.242.004l3.924-3.917 3.924 3.917c1.415 1.171 2.829 1.169 4.242-.004a2.998 2.998 0 0 0-.004-4.242l-3.917-3.91z"></path>
  <path fill="#fff" d="M201.021 23.12h45.422v37.84h-45.422z"></path>
  <path d="M246.443 63.96h-45.422a3 3 0 0 1-3-3V23.12a3 3 0 0 1 3-3h45.422a3 3 0 0 1 3 3v37.84a3 3 0 0 1-3 3zm-42.422-6h39.422V26.12h-39.422v31.84z"></path>
  <path d="M216.49 36.007h14.485v12.067H216.49z"></path>
  <path fill="#fff" d="M122.996 23.12h45.422v37.84h-45.422z"></path>
  <path d="M168.418 63.96h-45.422a3 3 0 0 1-3-3V23.12a3 3 0 0 1 3-3h45.422a3 3 0 0 1 3 3v37.84a3 3 0 0 1-3 3zm-42.422-6h39.422V26.12h-39.422v31.84z"></path>
  <path d="M151.28 45.04h-11.146a3 3 0 1 1 0-6h11.146a3 3 0 1 1 0 6z"></path>
  <path fill="#ffcf00" d="M465.801 331.192V278.94l-36.94-9.072c-2.717-9.57-6.382-18.68-11.129-27.201l20.026-32.763-37.029-36.948-32.757 19.836c-8.533-4.757-17.653-8.356-27.243-11.092l-9.117-36.991h-52.417l-9.1 36.885c-9.6 2.708-18.739 6.393-27.287 11.124l-32.867-19.947-37.065 36.92 19.899 32.658c-4.772 8.506-8.321 17.599-11.066 27.159l-37.047 9.091v52.252l36.94 9.072c2.717 9.57 6.382 18.68 11.129 27.201l-20.026 32.763 37.029 36.948 32.757-19.836c8.533 4.757 17.653 8.739 27.243 11.475l9.117 37.374h52.417l9.1-37.268c9.6-2.708 18.74-6.584 27.287-11.316l32.867 19.852 37.065-36.968-19.899-32.682c4.772-8.506 8.321-17.611 11.066-27.171l37.047-9.103z"></path>
  <path fill="#feac01" d="M275.371 359.767c-41.96-25.509-19.263-66.804-5.292-85.857 24.166-32.955 45.165-84.692 39.286-129.202h-30.171l-9.1 36.885c-9.6 2.708-18.74 6.393-27.287 11.125L209.94 172.77l-37.065 36.92 19.899 32.658c-4.772 8.506-8.321 17.599-11.066 27.159l-37.047 9.09v52.252l36.94 9.072c2.717 9.57 6.382 18.68 11.129 27.2l-20.026 32.763 37.029 36.948 32.757-19.836c8.533 4.757 17.653 8.739 27.243 11.476l9.117 37.374h37.971c8.223-40.103-4.555-83.648-41.45-106.079z"></path>
  <path d="m466.517 276.026-35.258-8.658c-2.605-8.769-5.984-17.034-10.062-24.617l19.12-31.282a3 3 0 0 0-.44-3.688l-37.028-36.948a3.002 3.002 0 0 0-3.673-.442l-31.279 18.94c-4.177-2.247-8.542-4.253-13.138-6.061V3a3 3 0 0 0-3-3H3.047a3 3 0 0 0-3 3v312.613a3 3 0 0 0 3 3h138.615v12.236a3 3 0 0 0 2.284 2.913l35.258 8.659c2.605 8.769 5.984 17.034 10.062 24.617l-19.12 31.282a3 3 0 0 0 .44 3.688l37.028 36.947a3 3 0 0 0 3.673.442l31.276-18.938c8.174 4.432 16.456 7.925 24.666 10.403l8.708 35.694a2.998 2.998 0 0 0 2.914 2.289h52.417a3 3 0 0 0 2.914-2.288l8.689-35.582c8.378-2.494 16.674-5.938 24.707-10.255l31.393 18.961a3.001 3.001 0 0 0 3.669-.444l37.064-36.968a3 3 0 0 0 .444-3.685l-18.995-31.197c3.98-7.369 7.263-15.447 9.993-24.595l35.369-8.69a3 3 0 0 0 2.284-2.913v-52.252a2.997 2.997 0 0 0-2.282-2.911zM6.047 6h342.712v72.949H6.047V6zm135.615 272.598v34.016H6.047V84.949h342.712v96.123a149.435 149.435 0 0 0-5.53-1.769l-8.704-35.313a3 3 0 0 0-2.913-2.282h-52.417a3 3 0 0 0-2.913 2.281l-8.685 35.202c-8.743 2.584-17.039 5.964-24.707 10.065l-31.393-19.052a3 3 0 0 0-3.674.439l-37.064 36.92a2.999 2.999 0 0 0-.444 3.686l18.993 31.174c-3.983 7.373-7.266 15.447-9.992 24.58l-35.368 8.679a3.004 3.004 0 0 0-2.286 2.916zm321.139 50.241-34.763 8.542a3 3 0 0 0-2.168 2.085c-2.883 10.041-6.415 18.719-10.798 26.531a3 3 0 0 0 .054 3.028l18.671 30.665-33.731 33.644-30.859-18.639a3.003 3.003 0 0 0-3.004-.057c-8.642 4.784-17.606 8.503-26.647 11.053a3 3 0 0 0-2.1 2.176l-8.542 34.98h-47.705l-8.56-35.086a2.999 2.999 0 0 0-2.091-2.174c-8.829-2.52-17.781-6.291-26.605-11.21a2.997 2.997 0 0 0-3.015.054l-30.748 18.618-33.691-33.617 18.792-30.746a3.002 3.002 0 0 0 .062-3.024c-4.497-8.072-8.152-17.008-10.864-26.56a3 3 0 0 0-2.17-2.094l-34.655-8.512V280.95l34.762-8.529a3.003 3.003 0 0 0 2.169-2.086c2.878-10.024 6.41-18.698 10.798-26.519.53-.945.51-2.104-.055-3.028l-18.668-30.641 33.725-33.593 30.858 18.728c.92.559 2.066.581 3.01.061 8.174-4.525 17.139-8.18 26.647-10.861a3.003 3.003 0 0 0 2.099-2.169l8.537-34.604h47.717l8.556 34.709a3.002 3.002 0 0 0 2.09 2.167c9.9 2.825 18.603 6.366 26.604 10.827a2.999 2.999 0 0 0 3.015-.054l30.748-18.619 33.691 33.618-18.792 30.746a3.002 3.002 0 0 0-.062 3.024c4.497 8.072 8.152 17.008 10.864 26.56a3 3 0 0 0 2.17 2.094l34.655 8.511v47.547z"></path>
  <circle cx="305.231" cy="305.278" r="107" fill="#00d5fe"></circle>
  <path fill="#10a5e7" d="M275.371 359.767c-41.96-25.509-19.263-66.804-5.292-85.857 14.786-20.164 28.374-47.361 35.358-75.63-.069 0-.136-.003-.205-.003-59.094 0-107 47.906-107 107 0 59.095 47.906 107 107 107 3.246 0 6.456-.153 9.628-.436-6.223-21.018-19.202-39.74-39.489-52.074z"></path>
  <g fill="#fff" opacity=".5">
    <ellipse cx="375.614" cy="285.561" rx="5.415" ry="5.41"></ellipse>
    <ellipse cx="375.614" cy="303.594" rx="5.415" ry="5.41"></ellipse>
    <ellipse cx="375.614" cy="321.627" rx="5.415" ry="5.41"></ellipse>
    <ellipse cx="375.614" cy="339.661" rx="5.415" ry="5.41"></ellipse>
    <ellipse cx="403.07" cy="285.561" rx="5.415" ry="5.41"></ellipse>
    <ellipse cx="403.07" cy="303.594" rx="5.415" ry="5.41"></ellipse>
    <ellipse cx="403.07" cy="321.627" rx="5.415" ry="5.41"></ellipse>
    <ellipse cx="348.158" cy="285.561" rx="5.415" ry="5.41"></ellipse>
    <ellipse cx="348.158" cy="303.594" rx="5.415" ry="5.41"></ellipse>
    <ellipse cx="348.158" cy="321.627" rx="5.415" ry="5.41"></ellipse>
    <ellipse cx="348.158" cy="339.661" rx="5.415" ry="5.41"></ellipse>
    <ellipse cx="320.702" cy="285.561" rx="5.415" ry="5.41"></ellipse>
    <ellipse cx="320.702" cy="303.594" rx="5.415" ry="5.41"></ellipse>
    <ellipse cx="320.702" cy="321.627" rx="5.415" ry="5.41"></ellipse>
    <ellipse cx="320.702" cy="339.661" rx="5.415" ry="5.41"></ellipse>
    <ellipse cx="293.245" cy="285.561" rx="5.415" ry="5.41"></ellipse>
    <ellipse cx="293.245" cy="303.594" rx="5.415" ry="5.41"></ellipse>
    <ellipse cx="293.245" cy="321.627" rx="5.415" ry="5.41"></ellipse>
    <ellipse cx="293.614" cy="339.661" rx="5.415" ry="5.41"></ellipse>
    <ellipse cx="265.789" cy="285.561" rx="5.415" ry="5.41"></ellipse>
    <ellipse cx="265.789" cy="303.594" rx="5.415" ry="5.41"></ellipse>
    <ellipse cx="265.789" cy="321.627" rx="5.415" ry="5.41"></ellipse>
    <ellipse cx="266.158" cy="339.661" rx="5.415" ry="5.41"></ellipse>
    <ellipse cx="236.789" cy="285.561" rx="5.415" ry="5.41"></ellipse>
    <ellipse cx="236.789" cy="303.594" rx="5.415" ry="5.41"></ellipse>
    <ellipse cx="236.789" cy="321.627" rx="5.415" ry="5.41"></ellipse>
    <ellipse cx="236.789" cy="339.661" rx="5.415" ry="5.41"></ellipse>
    <ellipse cx="208.789" cy="285.561" rx="5.415" ry="5.41"></ellipse>
    <ellipse cx="208.789" cy="303.594" rx="5.415" ry="5.41"></ellipse>
    <ellipse cx="208.789" cy="321.627" rx="5.415" ry="5.41"></ellipse>
    <ellipse cx="208.789" cy="339.661" rx="5.415" ry="5.41"></ellipse>
  </g>
  <g fill="#fff" opacity=".5">
    <ellipse cx="375.614" cy="360.561" rx="5.415" ry="5.41"></ellipse>
    <ellipse cx="375.614" cy="378.594" rx="5.415" ry="5.41"></ellipse>
    <ellipse cx="348.527" cy="360.561" rx="5.415" ry="5.41"></ellipse>
    <ellipse cx="348.527" cy="378.594" rx="5.415" ry="5.41"></ellipse>
    <ellipse cx="348.527" cy="396.627" rx="5.415" ry="5.41"></ellipse>
    <ellipse cx="321.071" cy="360.561" rx="5.415" ry="5.41"></ellipse>
    <ellipse cx="321.071" cy="378.594" rx="5.415" ry="5.41"></ellipse>
    <ellipse cx="321.071" cy="396.627" rx="5.415" ry="5.41"></ellipse>
    <ellipse cx="293.614" cy="360.561" rx="5.415" ry="5.41"></ellipse>
    <ellipse cx="293.614" cy="378.594" rx="5.415" ry="5.41"></ellipse>
    <ellipse cx="293.614" cy="396.627" rx="5.415" ry="5.41"></ellipse>
    <ellipse cx="266.158" cy="360.561" rx="5.415" ry="5.41"></ellipse>
    <ellipse cx="266.158" cy="378.594" rx="5.415" ry="5.41"></ellipse>
    <ellipse cx="266.158" cy="396.627" rx="5.415" ry="5.41"></ellipse>
    <ellipse cx="236.789" cy="360.561" rx="5.415" ry="5.41"></ellipse>
    <ellipse cx="236.789" cy="378.594" rx="5.415" ry="5.41"></ellipse>
  </g>
  <g opacity=".5">
    <ellipse cx="375.614" cy="230.594" fill="#fff" rx="5.415" ry="5.41"></ellipse>
    <ellipse cx="375.614" cy="248.627" fill="#fff" rx="5.415" ry="5.41"></ellipse>
    <ellipse cx="375.614" cy="266.661" fill="#fff" rx="5.415" ry="5.41"></ellipse>
    <ellipse cx="348.158" cy="212.561" fill="#fff" rx="5.415" ry="5.41"></ellipse>
    <ellipse cx="348.158" cy="230.594" fill="#fff" rx="5.415" ry="5.41"></ellipse>
    <ellipse cx="348.158" cy="248.627" fill="#fff" rx="5.415" ry="5.41"></ellipse>
    <ellipse cx="348.158" cy="266.661" fill="#fff" rx="5.415" ry="5.41"></ellipse>
    <g fill="#fff">
      <ellipse cx="320.702" cy="212.561" rx="5.415" ry="5.41"></ellipse>
      <ellipse cx="320.702" cy="230.594" rx="5.415" ry="5.41"></ellipse>
      <ellipse cx="320.702" cy="248.627" rx="5.415" ry="5.41"></ellipse>
      <ellipse cx="320.702" cy="266.661" rx="5.415" ry="5.41"></ellipse>
    </g>
    <g fill="#fff">
      <ellipse cx="293.245" cy="212.561" rx="5.415" ry="5.41"></ellipse>
      <ellipse cx="293.245" cy="230.594" rx="5.415" ry="5.41"></ellipse>
      <ellipse cx="293.245" cy="248.627" rx="5.415" ry="5.41"></ellipse>
      <ellipse cx="293.245" cy="266.661" rx="5.415" ry="5.41"></ellipse>
    </g>
    <g fill="#fff">
      <ellipse cx="265.789" cy="212.561" rx="5.415" ry="5.41"></ellipse>
      <ellipse cx="265.789" cy="230.594" rx="5.415" ry="5.41"></ellipse>
      <ellipse cx="265.789" cy="248.627" rx="5.415" ry="5.41"></ellipse>
      <ellipse cx="265.789" cy="266.661" rx="5.415" ry="5.41"></ellipse>
    </g>
    <g fill="#fff">
      <ellipse cx="236.789" cy="230.594" rx="5.415" ry="5.41"></ellipse>
      <ellipse cx="236.789" cy="248.627" rx="5.415" ry="5.41"></ellipse>
      <ellipse cx="236.789" cy="266.661" rx="5.415" ry="5.41"></ellipse>
    </g>
    <path fill="#fff" d="M403.07 334.251a5.412 5.412 0 0 0-5.415 5.41 5.412 5.412 0 0 0 5.415 5.41c.561 0 1.102-.085 1.61-.243a105.86 105.86 0 0 0 2.878-8.194 5.409 5.409 0 0 0-4.488-2.383zm-5.415-67.59a5.412 5.412 0 0 0 8.898 4.139 106.496 106.496 0 0 0-3.764-9.535 5.408 5.408 0 0 0-5.134 5.396zm-188.866 5.41a5.412 5.412 0 0 0 5.415-5.41 5.412 5.412 0 0 0-6.58-5.281 106.294 106.294 0 0 0-3.323 8.309 5.412 5.412 0 0 0 4.488 2.382z"></path>
  </g>
  <path d="M305.231 415.278c-60.654 0-110-49.346-110-110s49.346-110 110-110 110 49.346 110 110-49.345 110-110 110zm0-214c-57.346 0-104 46.654-104 104s46.654 104 104 104 104-46.654 104-104-46.654-104-104-104z"></path>
  <path fill="#ff8ede" d="m349.891 236.292-10.161 18.447c16.114 11.021 26.694 29.542 26.694 50.539h21c0-28.922-14.951-54.336-37.533-68.986zm-126.852 68.986h21c0-21 10.583-39.524 26.702-50.544l-10.16-18.446c-22.587 14.647-37.542 40.064-37.542 68.99z"></path>
  <path fill="#ff8ede" d="M305.231 223.085a81.777 81.777 0 0 0-44.651 13.202l10.16 18.446a60.897 60.897 0 0 1 34.49-10.648 60.904 60.904 0 0 1 34.499 10.654l10.161-18.447a81.775 81.775 0 0 0-44.659-13.207z"></path>
  <path fill="#fd4cc8" d="M270.741 254.733a61.009 61.009 0 0 1 16.039-7.812c3.9-7.454 7.5-15.321 10.65-23.456a81.738 81.738 0 0 0-36.849 12.821l10.16 18.447z"></path>
  <path d="M351.523 233.776c-13.805-8.956-29.812-13.69-46.292-13.69-46.4 0-85.192 38.777-85.192 85.191a3 3 0 0 0 3 3h21a3 3 0 0 0 3-3c0-31.28 26.99-58.191 58.192-58.191 31.208 0 58.192 26.947 58.192 58.191a3 3 0 0 0 3 3h21a3 3 0 0 0 3-3c.001-28.97-14.541-55.7-38.9-71.501zm-110.414 68.501h-15.015c.924-24.7 13.223-47.368 33.444-61.662l7.288 13.23a64.203 64.203 0 0 0-25.717 48.432zm64.122-61.191c-11.878 0-23.361 3.233-33.416 9.38l-7.237-13.138a78.876 78.876 0 0 1 40.653-11.242c14.386 0 28.384 3.88 40.661 11.247l-7.236 13.139c-10.057-6.151-21.545-9.386-33.425-9.386zm64.123 61.191a64.203 64.203 0 0 0-25.709-48.426l7.287-13.23c20.218 14.293 32.513 36.959 33.437 61.656h-15.015z"></path>
  <circle cx="305.336" cy="306.49" r="12" fill="#fff"></circle>
  <path d="M327.497 283.858a3 3 0 0 0-4.242.043l-9.796 9.996a14.9 14.9 0 0 0-8.123-2.408c-8.271 0-15 6.729-15 15s6.729 15 15 15 15-6.729 15-15c0-3.112-.953-6.004-2.581-8.403l9.785-9.986a2.999 2.999 0 0 0-.043-4.242zm-22.161 31.631c-4.963 0-9-4.037-9-9s4.037-9 9-9 9 4.037 9 9-4.037 9-9 9z"></path>
  <circle cx="445.627" cy="68.073" r="14" fill="#915efd"></circle>
  <path d="M445.627 85.073c-9.374 0-17-7.626-17-17s7.626-17 17-17 17 7.626 17 17-7.626 17-17 17zm0-28c-6.065 0-11 4.935-11 11s4.935 11 11 11 11-4.935 11-11-4.935-11-11-11z"></path>
  <path fill="#feac01" d="m427.627 130.625 10.945 3.055 3.055 10.945 3.055-10.945 10.945-3.055-10.433-3.086-3.567-10.914-3.055 10.945z"></path>
  <path d="M391.757 86.194a3 3 0 0 1-3-3V12.628a3 3 0 1 1 6 0v70.566a3 3 0 0 1-3 3zm0 23a3 3 0 0 1-3-3v-5.666a3 3 0 1 1 6 0v5.666a3 3 0 0 1-3 3z"></path>
  <path fill="#feac01" d="m118.604 381.483 3.055 10.945 10.945 3.055-10.945 3.055-3.055 10.945-3.086-10.433-10.914-3.567 10.945-3.055z"></path>
  <path d="M81.174 358.613H10.607a3 3 0 1 1 0-6h70.566a3 3 0 0 1 .001 6zm23 0h-5.667a3 3 0 1 1 0-6h5.667a3 3 0 1 1 0 6z"></path>
  <circle cx="67.174" cy="432.716" r="14" fill="#915efd"></circle>
  <path d="M67.174 449.717c-9.374 0-17-7.626-17-17s7.626-17 17-17 17 7.626 17 17-7.626 17-17 17zm0-28c-6.065 0-11 4.935-11 11s4.935 11 11 11 11-4.935 11-11-4.935-11-11-11z"></path>
</svg>
