<svg xmlns="http://www.w3.org/2000/svg" viewBox="0 0 512 512" id="Fishinghook">
  <path fill="#757575" d="M391,343.07v1.75A135.7,135.7,0,0,1,255.25,480.61a131.694,131.694,0,0,1-94.92-39.88A135.481,135.481,0,0,1,121.23,345,135.713,135.713,0,0,1,224,213.45V199.14L290.41,177H291v65.94a33.294,33.294,0,0,1-33.25,33.55,69.072,69.072,0,0,0-49.18,20.16A67.665,67.665,0,0,0,188.32,345a68.559,68.559,0,0,0,19.55,48.62,65.819,65.819,0,0,0,47.46,19.89A68.534,68.534,0,0,0,324,344.82V344H282.75L391,253.61v89.46Z" class="color00acea svgShape"></path>
  <polygon fill="#777777" points="349.35 31.39 349.35 98.16 291 98.16 224 98.16 158.13 98.16 158.13 31.39 349.35 31.39" class="color00efd1 svgShape"></polygon>
  <polygon fill="#ffffff" points="291 143.45 291 177 290.41 177 224 199.14 224 165.59 290.41 143.45 291 143.45" class="colorfedb41 svgShape"></polygon>
  <polygon fill="#9c9c9c" points="291 109.9 291 143.45 290.41 143.45 224 165.59 224 132.04 290.41 109.9 291 109.9" class="colorf4b844 svgShape"></polygon>
  <polygon fill="#ffffff" points="291 99 291 109.9 290.41 109.9 224 132.04 224 99 224 98.16 291 98.16 291 99" class="colorfedb41 svgShape"></polygon>
  <path fill="#353535" d="M155.5,243.307a144.1,144.1,0,0,0-.868,203.039A140.332,140.332,0,0,0,255.25,488.61c79.264,0,143.75-64.5,143.75-143.79V253.61a8,8,0,0,0-13.128-6.141l-108.25,90.39A8,8,0,0,0,282.75,352h32.828a60.766,60.766,0,0,1-60.248,53.51A57.448,57.448,0,0,1,213.564,388a60.681,60.681,0,0,1-17.244-43A59.684,59.684,0,0,1,214.2,302.333,61.456,61.456,0,0,1,257.75,284.49,41.448,41.448,0,0,0,299,242.94V106h50.35A7.573,7.573,0,0,0,357,98.16V31.39c0-4.418-3.232-8.39-7.65-8.39H158.13A8.454,8.454,0,0,0,150,31.39V98.16a7.977,7.977,0,0,0,8.13,7.84H216V207.315A141.591,141.591,0,0,0,155.5,243.307ZM257.75,268.49a77.363,77.363,0,0,0-54.811,22.477A75.578,75.578,0,0,0,180.32,345a76.577,76.577,0,0,0,21.851,54.234A74.089,74.089,0,0,0,255.33,421.51,76.767,76.767,0,0,0,332,344.82V344a8,8,0,0,0-8-8H304.812L383,270.712V344.82c0,70.464-57.309,127.79-127.75,127.79a124.45,124.45,0,0,1-89.225-37.5A127.5,127.5,0,0,1,129.23,345,127.715,127.715,0,0,1,225.9,221.22a8,8,0,0,0,6.1-7.77v-8.544l51-17V242.94A25.43,25.43,0,0,1,257.75,268.49ZM232,137.806l51-17v16.685l-51,17Zm0,33.549,51-17v16.685l-51,17ZM166,39H341V90H166Zm110.333,67L232,120.94V106Z" class="color083863 svgShape"></path>
</svg>
