<svg xmlns="http://www.w3.org/2000/svg" viewBox="0 0 512 512" id="laptop">
  <path fill="#dfdfdf" d="M413.84,147.68H98.01c-23.43,0-42.5,19.07-42.5,42.5v218.08c0,6.9,5.6,12.5,12.5,12.5H443.84c6.9,0,12.5-5.6,12.5-12.5V190.18c0-23.43-19.07-42.5-42.5-42.5Z"></path>
  <path fill="#bebebe" d="M474.14,395.77H37.72c-6.9,0-12.5,5.6-12.5,12.5v21.24c0,23.43,19.07,42.5,42.5,42.5H444.14c23.43,0,42.5-19.07,42.5-42.5v-21.24c0-6.9-5.6-12.5-12.5-12.5Z"></path>
  <circle cx="393.84" cy="132.94" r="92.94" fill="#ffbe00"></circle>
  <path fill="#fc9900" d="M393.84,143.72c-6.9,0-12.5-5.6-12.5-12.5v-40.79c0-6.9,5.6-12.5,12.5-12.5s12.5,5.6,12.5,12.5v40.79c0,6.9-5.6,12.5-12.5,12.5Z"></path>
  <circle cx="393.84" cy="170.28" r="16.42" fill="#fc9900"></circle>
  <path fill="#bebebe" d="M393.84 370.77h-52.18c-6.9 0-12.5-5.6-12.5-12.5s5.6-12.5 12.5-12.5h52.18c6.9 0 12.5 5.6 12.5 12.5s-5.6 12.5-12.5 12.5zM393.84 320.77h-52.18c-6.9 0-12.5-5.6-12.5-12.5s5.6-12.5 12.5-12.5h52.18c6.9 0 12.5 5.6 12.5 12.5s-5.6 12.5-12.5 12.5zM393.84 270.77h-52.18c-6.9 0-12.5-5.6-12.5-12.5s5.6-12.5 12.5-12.5h52.18c6.9 0 12.5 5.6 12.5 12.5s-5.6 12.5-12.5 12.5z"></path>
  <path fill="#d33535" d="M286.89,287.7h-28.3c-.06-.54-.14-1.06-.21-1.58l6.99-3.67c10.58-5.56,17.15-16.44,17.15-28.4v-15.63c0-6.9-5.6-12.5-12.5-12.5s-12.5,5.6-12.5,12.5v15.63c0,2.64-1.45,5.04-3.79,6.27l-2.95,1.55c-3.24-5.99-7.26-10.9-11.76-14.83,1.76-4.48,2.68-9.28,2.68-14.2,0-21.43-17.44-38.87-38.87-38.87s-38.87,17.44-38.87,38.87c0,4.92,.92,9.73,2.68,14.2-4.5,3.94-8.51,8.84-11.75,14.83l-2.94-1.55c-2.34-1.23-3.79-3.63-3.79-6.27v-15.63c0-6.9-5.6-12.5-12.5-12.5s-12.5,5.6-12.5,12.5v15.63c0,11.95,6.57,22.83,17.15,28.4l6.99,3.67c-.07,.53-.15,1.05-.21,1.58h-28.3c-6.9,0-12.5,5.6-12.5,12.5s5.6,12.5,12.5,12.5h28.3c.06,.54,.14,1.06,.21,1.59l-6.99,3.67c-10.58,5.56-17.15,16.44-17.15,28.4v15.63c0,6.9,5.6,12.5,12.5,12.5s12.5-5.6,12.5-12.5v-15.63c0-2.64,1.45-5.04,3.79-6.27l2.95-1.55c10.88,20.11,30.4,28.01,47.94,28.01s37.06-7.9,47.94-28.01l2.95,1.55c2.34,1.23,3.79,3.63,3.79,6.27v15.63c0,6.9,5.6,12.5,12.5,12.5s12.5-5.6,12.5-12.5v-15.63c0-11.95-6.57-22.84-17.15-28.4l-6.99-3.67c.07-.53,.15-1.05,.21-1.59h28.3c6.9,0,12.5-5.6,12.5-12.5s-5.6-12.5-12.5-12.5Z"></path>
</svg>
