<svg xmlns="http://www.w3.org/2000/svg" viewBox="0 0 48 48" id="computer"><g><path fill="#dad7e5" d="M47,4V30H1V4A2,2,0,0,1,3,2H45A2,2,0,0,1,47,4Z"></path><path fill="#edebf2" d="M47,4V28H30A26,26,0,0,1,4,2H45A2,2,0,0,1,47,4Z"></path><path fill="#dad7e5" d="M47,30v4a2,2,0,0,1-2,2H3a2,2,0,0,1-2-2V30Z"></path><path fill="#edebf2" d="M47,30v4H8a4,4,0,0,1-4-4Z"></path><rect width="12" height="10" x="18" y="36" fill="#c6c3d8"></rect><path fill="#dad7e5" d="M30,38v8H20V42a4,4,0,0,1,4-4Z"></path><path fill="#dad7e5" d="M32,46H16a1,1,0,0,1,0-2H32A1,1,0,0,1,32,46Z"></path><path fill="#374f68" d="M25,33a1,1,0,0,0-2,0A1,1,0,0,0,25,33Z"></path><path fill="#9fdbf3" d="M45,5V30H3V5A1,1,0,0,1,4,4H44A1,1,0,0,1,45,5Z"></path><path fill="#b2e5fb" d="M45,5V28H30A24,24,0,0,1,6,4H44A1,1,0,0,1,45,5Z"></path><polygon fill="#edebf2" points="45 4 45 30 35 30 45 4" opacity=".2"></polygon><polygon fill="#edebf2" points="36 4 26 30 17 30 27 4 36 4" opacity=".2"></polygon><polygon fill="#edebf2" points="20 4 10 30 4 30 14 4 20 4" opacity=".2"></polygon></g></svg>